<?xml version="1.0" standalone="no"?>
<!DOCTYPE svg PUBLIC "-//W3C//DTD SVG 20010904//EN"
 "http://www.w3.org/TR/2001/REC-SVG-20010904/DTD/svg10.dtd">
<svg version="1.0" xmlns="http://www.w3.org/2000/svg"
 width="500.000000pt" height="500.000000pt" viewBox="0 0 500.000000 500.000000"
 preserveAspectRatio="xMidYMid meet">

<g transform="translate(0.000000,500.000000) scale(0.100000,-0.100000)"
 stroke="none" fill="#004AAD">
<path d="M3094 2816 c-3 -8 -4 -25 -2 -38 3 -20 10 -24 58 -29 96 -10 92 -4
146 -237 l27 -120 19 24 c11 13 30 24 42 24 12 0 25 2 28 5 7 8 -69 311 -87
345 -19 36 -31 40 -136 40 -68 0 -91 -3 -95 -14z" fill="#004AAD"/>
<path d="M1081 2737 c-19 -7 -44 -25 -55 -40 -19 -26 -21 -44 -24 -228 l-3
-199 40 0 41 0 0 120 0 120 45 0 c43 0 45 1 45 30 0 29 -2 30 -45 30 -45 0
-45 0 -45 35 0 41 36 85 70 85 16 0 20 6 20 30 0 26 -3 30 -27 29 -16 0 -43
-5 -62 -12z"/>
<path d="M2177 2696 c-25 -20 -26 -24 -13 -36 13 -10 16 -38 16 -155 0 -80 5
-156 11 -175 14 -38 57 -60 119 -60 38 0 40 2 40 30 0 26 -4 30 -27 30 -50 0
-58 13 -61 100 l-4 80 46 0 c44 0 46 1 46 29 0 28 -3 30 -42 33 l-43 3 -3 50
c-2 34 -10 57 -24 73 -26 27 -26 27 -61 -2z" fill="#F3052A"/>
<path d="M2416 2695 c-19 -19 -20 -29 -6 -56 16 -28 68 -26 79 4 18 46 -38 86
-73 52z" fill="#F3052A"/>
<path d="M3376 2673 c4 -16 11 -38 15 -50 l9 -23 269 0 c180 0 272 -4 276 -11
13 -21 -6 -77 -39 -115 l-34 -39 -245 -5 c-223 -5 -247 -7 -266 -24 -47 -43
-12 -189 58 -249 l33 -27 209 0 c126 0 218 4 230 10 21 12 25 50 7 68 -8 8
-64 12 -182 13 -94 1 -182 4 -195 8 -34 9 -65 53 -56 80 6 20 12 21 180 21
202 0 260 10 317 54 104 78 131 258 47 301 -23 12 -86 15 -334 15 l-305 0 6
-27z" fill="#F3052A"/>
<path d="M1244 2566 c-45 -20 -48 -32 -16 -55 24 -17 31 -18 43 -6 27 26 84
23 100 -7 10 -18 8 -24 -7 -35 -10 -7 -33 -13 -51 -13 -45 0 -99 -23 -112 -48
-19 -36 -13 -86 14 -112 34 -32 102 -33 143 -3 30 22 30 22 47 2 23 -25 37
-24 64 4 19 21 20 25 6 37 -11 9 -15 33 -15 89 0 42 -6 87 -13 101 -26 53
-132 77 -203 46z m132 -202 c-13 -51 -106 -59 -106 -9 0 29 13 38 65 45 44 6
50 1 41 -36z" fill="#004AAD"/>
<path d="M1918 2565 c-52 -29 -63 -86 -25 -130 13 -16 46 -33 82 -43 47 -14
60 -23 60 -38 0 -27 -78 -33 -106 -8 -18 16 -20 16 -39 -1 -27 -24 -25 -39 8
-61 39 -26 143 -25 179 2 48 36 49 101 2 136 -14 11 -47 25 -75 32 -38 9 -50
17 -52 34 -4 29 36 39 76 18 28 -15 32 -14 54 4 l23 19 -22 22 c-29 29 -124
37 -165 14z" fill="#004AAD"/>
<path d="M2571 2556 c-22 -23 -22 -26 -7 -48 12 -17 16 -47 16 -130 l0 -108
40 0 40 0 0 105 c0 92 3 108 20 125 26 26 55 25 74 -2 12 -17 16 -48 16 -125
l0 -103 40 0 40 0 0 110 c0 74 -5 122 -15 145 -23 56 -92 72 -153 35 l-33 -20
-21 20 c-27 25 -30 25 -57 -4z" fill="#F3052A"/>
<path d="M2974 2566 c-52 -23 -64 -50 -64 -147 0 -71 4 -91 20 -112 22 -28
105 -53 142 -42 92 26 108 50 108 162 0 56 -5 85 -16 102 -33 47 -126 65 -190
37z m108 -63 c14 -12 18 -31 18 -83 0 -74 -10 -90 -55 -90 -17 0 -36 5 -43 12
-18 18 -16 143 4 162 20 21 53 20 76 -1z" fill="#F3052A"/>
<path d="M1532 2445 c3 -120 4 -126 30 -151 36 -37 105 -39 141 -6 l25 24 21
-21 c26 -26 33 -26 62 -2 19 16 22 22 12 32 -9 9 -13 50 -13 131 l0 118 -40 0
-40 0 0 -91 c0 -117 -15 -149 -72 -149 -39 0 -48 25 -48 139 l0 101 -41 0 -41
0 4 -125z" fill="#004AAD"/>
<path d="M2410 2442 c0 -115 2 -130 20 -150 26 -27 38 -28 66 -1 20 19 21 23
8 36 -10 11 -14 42 -14 129 l0 114 -40 0 -40 0 0 -128z" fill="#F3052A"/>
<path d="M1596 2243 c-10 -11 -7 -163 4 -163 6 0 10 28 11 63 l1 62 21 -63
c11 -34 25 -61 31 -59 5 2 19 30 30 63 l21 59 6 -65 6 -65 1 88 c1 48 -2 87
-7 87 -5 0 -20 -33 -34 -72 l-24 -73 -22 67 c-22 67 -32 83 -45 71z" fill="#004AAD"/>
<path d="M1940 2165 c0 -47 4 -85 9 -85 5 0 11 10 13 22 4 31 26 34 39 4 7
-14 16 -26 21 -26 5 0 1 14 -8 31 -13 26 -14 37 -4 58 l12 26 -31 -29 -31 -30
0 57 c0 31 -4 57 -10 57 -6 0 -10 -35 -10 -85z" fill="#004AAD"/>
<path d="M2374 2165 c0 -49 1 -71 3 -48 2 23 2 64 0 90 -2 26 -3 8 -3 -42z"/>
<path d="M2181 2208 c0 -10 -7 -18 -13 -18 -10 0 -10 -2 -1 -8 6 -4 13 -28 15
-52 3 -40 6 -45 28 -47 25 -3 25 -3 3 7 -18 7 -23 17 -23 49 0 33 4 40 23 44
22 4 22 4 0 6 -12 0 -24 9 -26 19 -4 16 -5 16 -6 0z" fill="#004AAD"/>
<path d="M1770 2175 c-9 -10 -9 -15 -1 -15 6 0 11 5 11 11 0 13 42 7 47 -7 2
-6 -11 -15 -29 -20 -26 -8 -33 -15 -33 -34 0 -22 4 -25 43 -26 42 -2 42 -2 42
33 0 19 -5 43 -10 54 -13 23 -52 25 -70 4z m58 -57 c-4 -31 -48 -39 -48 -10 0
20 12 30 38 31 8 1 12 -8 10 -21z" fill="#004AAD"/>
<path d="M1870 2135 c0 -30 5 -55 10 -55 6 0 10 20 10 45 0 31 5 47 18 54 14
9 13 10 -10 11 -27 0 -28 -2 -28 -55z" fill="#004AAD"/>
<path d="M2061 2176 c-17 -20 -10 -77 10 -89 23 -14 69 0 69 21 -1 16 -1 16
-11 0 -14 -24 -46 -23 -59 2 -10 18 -8 20 30 20 32 0 40 4 40 18 0 39 -55 58
-79 28z m59 0 c0 -2 3 -11 6 -20 5 -12 -1 -16 -23 -16 -36 0 -46 9 -32 27 10
12 49 19 49 9z" fill="#004AAD"/>
<path d="M2250 2113 c0 -42 4 -73 10 -73 6 0 10 11 10 24 0 19 4 23 20 19 29
-8 50 14 50 52 0 40 -18 56 -59 53 l-31 -2 0 -73z m71 43 c14 -29 -4 -69 -29
-64 -17 3 -28 47 -18 74 8 22 35 16 47 -10z" fill="#004AAD"/>
<path d="M2420 2175 c-9 -10 -9 -15 -1 -15 6 0 11 5 11 11 0 13 42 7 47 -7 2
-6 -11 -15 -29 -20 -26 -8 -33 -15 -33 -34 0 -22 4 -25 43 -26 42 -2 42 -2 42
33 0 19 -5 43 -10 54 -13 23 -52 25 -70 4z m58 -57 c-4 -31 -48 -39 -48 -10 0
20 12 30 38 31 8 1 12 -8 10 -21z" fill="#004AAD"/>
<path d="M2532 2178 c-7 -7 -12 -26 -12 -43 0 -36 15 -55 46 -55 23 0 51 26
40 37 -3 4 -12 -2 -20 -12 -17 -24 -43 -14 -52 20 -11 44 34 75 55 38 5 -10
13 -15 17 -11 11 12 -16 38 -40 38 -12 0 -27 -5 -34 -12z" fill="#004AAD"/>
<path d="M2638 2165 c-8 -18 -9 -34 -2 -53 8 -22 15 -27 44 -27 27 0 36 5 38
20 4 19 3 19 -10 1 -17 -22 -51 -18 -56 7 -3 14 4 17 36 17 39 0 40 1 33 28
-6 21 -14 28 -39 30 -26 3 -34 -1 -44 -23z m70 -7 c3 -14 -3 -18 -27 -18 -29
0 -41 17 -24 34 13 13 48 1 51 -16z" fill="#004AAD"/>
<path d="M3486 2094 c-43 -43 5 -120 60 -96 13 7 29 23 36 36 24 55 -53 103
-96 60z" fill="#004AAD"/>
<path d="M3767 2092 c-10 -10 -17 -28 -17 -40 0 -28 34 -62 60 -62 27 0 60 35
60 63 0 50 -70 76 -103 39z" fill="#004AAD"/>
</g>
</svg>
